<?xml version="1.0" encoding="utf-8"?>
<!-- Generator: Adobe Illustrator 24.2.0, SVG Export Plug-In . SVG Version: 6.00 Build 0)  -->
<svg version="1.1" id="Layer_1" xmlns="http://www.w3.org/2000/svg" xmlns:xlink="http://www.w3.org/1999/xlink" x="0px" y="0px"
	 viewBox="0 0 15 15" style="enable-background:new 0 0 15 15;" xml:space="preserve">
<style type="text/css">
	.st0{fill:#191919;}
</style>
<g>
	<path class="st0" d="M9.29,5.72c-0.17,0-0.3,0.14-0.3,0.3v5.73c0,0.17,0.14,0.3,0.3,0.3s0.3-0.14,0.3-0.3V6.02
		C9.59,5.85,9.46,5.72,9.29,5.72z"/>
	<path class="st0" d="M5.71,5.72c-0.17,0-0.3,0.14-0.3,0.3v5.73c0,0.17,0.14,0.3,0.3,0.3c0.17,0,0.3-0.14,0.3-0.3V6.02
		C6.02,5.85,5.88,5.72,5.71,5.72z"/>
	<path class="st0" d="M3.11,4.88v7.47c0,0.44,0.16,0.86,0.44,1.15c0.28,0.3,0.67,0.47,1.08,0.47h5.73c0.41,0,0.8-0.17,1.08-0.47
		c0.28-0.3,0.44-0.71,0.44-1.15V4.88c0.56-0.15,0.93-0.69,0.85-1.27c-0.08-0.58-0.57-1.01-1.15-1.01h-1.55V2.23
		c0-0.32-0.12-0.62-0.35-0.85C9.47,1.15,9.16,1.03,8.85,1.03H6.15c-0.32,0-0.62,0.12-0.85,0.35C5.08,1.6,4.95,1.91,4.95,2.23v0.38
		H3.4c-0.58,0-1.07,0.43-1.15,1.01C2.18,4.19,2.54,4.73,3.11,4.88z M10.37,13.36H4.63c-0.52,0-0.92-0.45-0.92-1.02V4.91h7.58v7.44
		C11.29,12.92,10.88,13.36,10.37,13.36z M5.56,2.23c0-0.16,0.06-0.31,0.17-0.42C5.84,1.69,6,1.63,6.15,1.64h2.69
		c0.16,0,0.31,0.06,0.42,0.17c0.11,0.11,0.17,0.26,0.17,0.42v0.38H5.56V2.23z M3.4,3.21h8.19c0.3,0,0.55,0.24,0.55,0.55
		S11.9,4.3,11.6,4.3H3.4c-0.3,0-0.55-0.24-0.55-0.55S3.1,3.21,3.4,3.21z"/>
	<path class="st0" d="M7.5,5.72c-0.17,0-0.3,0.14-0.3,0.3v5.73c0,0.17,0.14,0.3,0.3,0.3s0.3-0.14,0.3-0.3V6.02
		C7.8,5.85,7.67,5.72,7.5,5.72z"/>
</g>
<g>
</g>
<g>
</g>
<g>
</g>
<g>
</g>
<g>
</g>
<g>
</g>
</svg>
