<?xml version="1.0" encoding="utf-8"?>
<!-- Generator: Adobe Illustrator 24.2.0, SVG Export Plug-In . SVG Version: 6.00 Build 0)  -->
<svg version="1.1" id="Layer_1" xmlns="http://www.w3.org/2000/svg" xmlns:xlink="http://www.w3.org/1999/xlink" x="0px" y="0px"
	 viewBox="0 0 15 15" style="enable-background:new 0 0 15 15;" xml:space="preserve">
<style type="text/css">
	.st0{fill:#191919;}
</style>
<g>
	<path class="st0" d="M14.11,3.23h-2.23c0-0.02-0.01-0.04-0.01-0.06c-0.2-0.67-0.82-1.13-1.52-1.13c-0.7,0-1.32,0.47-1.52,1.13
		C8.82,3.19,8.82,3.21,8.82,3.23H0.89C0.68,3.23,0.5,3.4,0.5,3.62s0.18,0.39,0.39,0.39h7.93c0,0.02,0.01,0.04,0.01,0.06
		c0.2,0.67,0.82,1.14,1.52,1.14c0.7,0,1.32-0.47,1.52-1.13c0.01-0.02,0.01-0.04,0.01-0.06h2.23c0.22,0,0.39-0.18,0.39-0.39
		S14.32,3.23,14.11,3.23z M11.52,3.78l0,0.03c-0.01,0.05-0.02,0.1-0.03,0.15c-0.15,0.5-0.61,0.84-1.13,0.84
		c-0.52,0-0.98-0.35-1.13-0.84C9.21,3.91,9.2,3.86,9.19,3.81l0-0.03c-0.01-0.05-0.01-0.1-0.01-0.16c0-0.05,0-0.11,0.01-0.16l0-0.03
		c0.01-0.05,0.02-0.1,0.03-0.15c0.15-0.5,0.61-0.84,1.13-0.84c0.52,0,0.98,0.35,1.13,0.84c0.01,0.05,0.02,0.1,0.03,0.15l0,0.03
		c0.01,0.05,0.01,0.1,0.01,0.16S11.52,3.73,11.52,3.78z"/>
	<path class="st0" d="M14.11,7.11H6.58c0-0.02-0.01-0.04-0.01-0.06c-0.2-0.67-0.82-1.14-1.52-1.14c-0.7,0-1.32,0.47-1.52,1.14
		C3.52,7.07,3.52,7.09,3.52,7.11H0.89C0.68,7.11,0.5,7.28,0.5,7.5s0.18,0.39,0.39,0.39h2.62c0,0.02,0.01,0.04,0.01,0.06
		c0.2,0.67,0.82,1.14,1.52,1.14c0.7,0,1.32-0.47,1.52-1.14c0.01-0.02,0.01-0.04,0.01-0.06h7.53c0.22,0,0.39-0.18,0.39-0.39
		S14.32,7.11,14.11,7.11z M6.21,7.66l0,0.03C6.2,7.74,6.19,7.79,6.18,7.83c-0.15,0.5-0.61,0.84-1.13,0.84
		c-0.52,0-0.98-0.35-1.13-0.84C3.91,7.79,3.9,7.74,3.89,7.69l0-0.03C3.88,7.61,3.87,7.55,3.87,7.5c0-0.05,0-0.1,0.01-0.16l0-0.03
		c0.01-0.05,0.02-0.1,0.03-0.15c0.15-0.5,0.61-0.84,1.13-0.84c0.52,0,0.98,0.35,1.13,0.84c0.01,0.05,0.02,0.1,0.03,0.15l0,0.02
		c0.01,0.05,0.01,0.1,0.01,0.16S6.22,7.6,6.21,7.66z"/>
	<path class="st0" d="M14.11,10.99h-2.23c0-0.02-0.01-0.04-0.01-0.06c-0.2-0.67-0.82-1.13-1.52-1.13c-0.7,0-1.32,0.47-1.52,1.13
		c-0.01,0.02-0.01,0.04-0.01,0.06H0.89c-0.22,0-0.39,0.18-0.39,0.39c0,0.22,0.18,0.39,0.39,0.39h7.93c0,0.02,0.01,0.04,0.01,0.06
		c0.2,0.67,0.82,1.14,1.52,1.14c0.7,0,1.32-0.47,1.52-1.13c0.01-0.02,0.01-0.04,0.01-0.06h2.23c0.22,0,0.39-0.18,0.39-0.39
		C14.5,11.16,14.32,10.99,14.11,10.99z M11.52,11.54l0,0.03c-0.01,0.05-0.02,0.1-0.03,0.15c-0.15,0.5-0.61,0.84-1.13,0.84
		c-0.52,0-0.98-0.35-1.13-0.84c-0.01-0.05-0.02-0.1-0.03-0.14l0-0.03c-0.01-0.05-0.01-0.1-0.01-0.16s0-0.11,0.01-0.16l0-0.03
		c0.01-0.05,0.02-0.1,0.03-0.15c0.15-0.5,0.61-0.84,1.13-0.84c0.52,0,0.98,0.35,1.13,0.84c0.01,0.05,0.02,0.1,0.03,0.15l0,0.03
		c0.01,0.05,0.01,0.1,0.01,0.16S11.52,11.48,11.52,11.54z"/>
</g>
<g>
</g>
<g>
</g>
<g>
</g>
<g>
</g>
<g>
</g>
<g>
</g>
</svg>
