<?xml version="1.0" encoding="utf-8"?>
<!-- Generator: Adobe Illustrator 24.2.0, SVG Export Plug-In . SVG Version: 6.00 Build 0)  -->
<svg version="1.1" id="Layer_1" xmlns="http://www.w3.org/2000/svg" xmlns:xlink="http://www.w3.org/1999/xlink" x="0px" y="0px"
	 viewBox="0 0 15 15" style="enable-background:new 0 0 15 15;" xml:space="preserve">
<style type="text/css">
	.st0{fill:#191919;}
</style>
<g>
	<path class="st0" d="M3.86,10.45l0.43-0.43c-1.5-0.87-2.68-2.06-3.1-2.51C1.88,6.75,4.61,4,7.5,4c0.85,0,1.64,0.18,2.35,0.45
		l0.45-0.45C9.47,3.65,8.53,3.42,7.5,3.42c-3.59,0-6.8,3.74-6.93,3.9c-0.09,0.11-0.09,0.27,0,0.38C0.65,7.79,1.98,9.33,3.86,10.45z"
		/>
	<path class="st0" d="M14.45,7.33c-0.07-0.11-1.24-1.75-3.21-2.87L10.8,4.89c1.59,0.87,2.66,2.13,3.03,2.59
		C13.16,8.21,10.41,11,7.5,11c-0.78,0-1.56-0.21-2.28-0.52l-0.45,0.45c0.85,0.39,1.77,0.66,2.73,0.66c3.59,0,6.8-3.74,6.93-3.89
		C14.52,7.59,14.52,7.44,14.45,7.33z"/>
</g>
<g>
	<path class="st0" d="M5.75,7.5c0-0.96,0.79-1.75,1.75-1.75c0.3,0,0.58,0.08,0.83,0.22l0.43-0.43C8.4,5.31,7.96,5.17,7.5,5.17
		c-1.29,0-2.33,1.05-2.33,2.33c0,0.46,0.14,0.9,0.38,1.26l0.43-0.43C5.83,8.08,5.75,7.8,5.75,7.5z"/>
	<path class="st0" d="M9.03,6.67C9.17,6.92,9.25,7.2,9.25,7.5c0,0.96-0.79,1.75-1.75,1.75c-0.3,0-0.58-0.08-0.83-0.22L6.24,9.46
		C6.6,9.69,7.04,9.83,7.5,9.83c1.29,0,2.33-1.05,2.33-2.33c0-0.46-0.14-0.9-0.38-1.26L9.03,6.67z"/>
</g>
<rect x="7.21" y="-0.74" transform="matrix(0.7071 0.7071 -0.7071 0.7071 7.5 -3.1066)" class="st0" width="0.59" height="16.48"/>
<g>
</g>
<g>
</g>
<g>
</g>
<g>
</g>
<g>
</g>
<g>
</g>
</svg>
