<?xml version="1.0" encoding="utf-8"?>
<!-- Generator: Adobe Illustrator 24.2.0, SVG Export Plug-In . SVG Version: 6.00 Build 0)  -->
<svg version="1.1" id="Layer_1" xmlns="http://www.w3.org/2000/svg" xmlns:xlink="http://www.w3.org/1999/xlink" x="0px" y="0px"
	 viewBox="0 0 15 15" style="enable-background:new 0 0 15 15;" xml:space="preserve">
<style type="text/css">
	.st0{fill:#191919;}
</style>
<g>
	<g>
		<g>
			<path class="st0" d="M14.45,7.33c-0.11-0.16-2.76-3.92-6.95-3.92c-3.59,0-6.8,3.74-6.93,3.89c-0.09,0.11-0.09,0.27,0,0.38
				c0.13,0.16,3.34,3.89,6.93,3.89s6.8-3.74,6.93-3.89C14.52,7.59,14.52,7.44,14.45,7.33z M7.5,11c-2.88,0-5.62-2.75-6.32-3.5
				C1.88,6.75,4.61,4,7.5,4c3.37,0,5.75,2.74,6.33,3.48C13.16,8.21,10.41,11,7.5,11z"/>
		</g>
	</g>
	<g>
		<g>
			<path class="st0" d="M7.5,5.17c-1.29,0-2.33,1.05-2.33,2.33S6.21,9.83,7.5,9.83S9.83,8.79,9.83,7.5S8.79,5.17,7.5,5.17z
				 M7.5,9.25c-0.96,0-1.75-0.79-1.75-1.75S6.54,5.75,7.5,5.75S9.25,6.54,9.25,7.5S8.46,9.25,7.5,9.25z"/>
		</g>
	</g>
</g>
<g>
</g>
<g>
</g>
<g>
</g>
<g>
</g>
<g>
</g>
<g>
</g>
</svg>
